<?xml version="1.0" standalone="no"?>
<!DOCTYPE svg PUBLIC "-//W3C//DTD SVG 20010904//EN"
 "http://www.w3.org/TR/2001/REC-SVG-20010904/DTD/svg10.dtd">
<svg version="1.0" xmlns="http://www.w3.org/2000/svg"
 width="200.000000pt" height="200.000000pt" viewBox="0 0 200.000000 200.000000"
 preserveAspectRatio="xMidYMid meet">
<metadata>
Created by potrace 1.16, written by Peter Selinger 2001-2019
</metadata>
<g transform="translate(0.000000,200.000000) scale(0.100000,-0.100000)"
fill="#000000" stroke="none">
<path d="M387 1584 c-4 -4 -7 -98 -8 -208 0 -111 -6 -255 -12 -321 -11 -114
-13 -120 -35 -123 -30 -4 -49 12 -57 48 -3 16 -13 31 -22 35 -34 13 -41 -16
-49 -196 -7 -174 -6 -177 18 -230 32 -70 69 -113 127 -147 l46 -27 258 -3
c234 -3 258 -2 264 14 11 29 -11 47 -73 60 -113 23 -178 64 -215 135 -11 22
-24 39 -30 39 -6 0 -27 -14 -46 -30 -40 -35 -47 -36 -73 -10 -51 51 -11 109
98 144 123 38 222 50 422 50 200 0 299 -12 422 -50 109 -35 149 -93 98 -144
-26 -26 -33 -25 -73 10 -19 17 -40 30 -46 30 -6 0 -19 -17 -30 -39 -37 -71
-102 -112 -215 -135 -62 -13 -84 -31 -73 -60 6 -16 30 -17 264 -14 l258 3 46
27 c58 34 95 77 127 147 24 53 25 56 18 230 -8 180 -15 211 -49 198 -8 -3 -18
-19 -22 -36 -8 -37 -27 -54 -57 -49 -22 3 -24 9 -35 127 -16 175 -20 190 -49
203 -37 17 -59 -12 -72 -97 -27 -165 -67 -236 -135 -238 -70 -2 -98 35 -112
145 -10 77 -51 76 -79 -1 -20 -56 -75 -125 -117 -146 -36 -19 -102 -19 -138
-1 -43 23 -96 88 -116 144 -29 80 -70 82 -80 4 -14 -109 -42 -147 -111 -145
-97 3 -142 141 -153 468 l-6 190 -35 3 c-20 2 -39 0 -43 -4z"/>
<path d="M865 750 c-99 -14 -126 -23 -147 -51 -15 -20 -17 -30 -9 -52 13 -35
45 -46 133 -50 85 -2 99 13 31 34 -77 23 -65 36 41 44 116 8 268 -2 263 -19
-2 -6 -24 -17 -50 -25 -68 -21 -54 -36 31 -34 88 4 120 15 133 50 16 42 -15
75 -82 90 -75 17 -260 24 -344 13z"/>
</g>
</svg>
