<?xml version="1.0" standalone="no"?>
<!DOCTYPE svg PUBLIC "-//W3C//DTD SVG 20010904//EN"
 "http://www.w3.org/TR/2001/REC-SVG-20010904/DTD/svg10.dtd">
<svg version="1.0" xmlns="http://www.w3.org/2000/svg"
 width="200" height="200" viewBox="0 0 200 200"
 preserveAspectRatio="xMidYMid meet">
<metadata>
Created by potrace 1.16, written by Peter Selinger 2001-2019
</metadata>
<g transform="translate(0.000000,200.000000) scale(0.100000,-0.100000)"
fill="#000000" stroke="none">
<path d="M692 1530 c-371 -130 -572 -206 -588 -221 -14 -13 -24 -34 -24 -50 0
-31 32 -61 332 -312 199 -166 233 -185 308 -172 21 4 294 96 607 205 414 145
572 204 585 220 28 34 23 72 -14 107 -59 54 -475 401 -496 412 -12 6 -49 11
-84 11 -56 -1 -128 -24 -626 -200z"/>
<path d="M52 1010 l-1 -189 72 -64 c177 -156 439 -369 471 -382 19 -8 64 -15
99 -15 57 0 124 21 646 204 320 112 589 210 598 218 14 11 16 11 11 -1 -2 -8
-15 -23 -29 -33 -13 -10 -280 -108 -594 -219 -508 -178 -577 -200 -635 -201
-42 -1 -76 5 -96 15 -37 19 -489 396 -521 435 l-23 27 0 -37 c0 -42 -7 -35
324 -312 128 -106 212 -170 235 -176 91 -25 115 -19 653 169 661 231 646 225
673 251 22 20 24 31 24 114 0 84 -1 89 -14 65 -19 -35 -24 -37 -657 -258 -572
-200 -600 -207 -679 -179 -46 16 -549 436 -549 459 0 5 115 -88 257 -206 170
-143 268 -218 292 -225 91 -25 114 -19 673 176 655 229 635 221 658 246 17 18
19 36 18 159 l0 138 -37 -28 c-49 -39 -1165 -431 -1225 -431 -94 0 -89 -3
-517 361 l-127 107 0 -188z m255 -101 c131 -111 258 -210 282 -221 34 -16 59
-19 115 -16 61 4 150 32 636 202 311 110 576 206 589 215 33 21 25 -5 -10 -31
-13 -10 -280 -108 -594 -219 -508 -178 -577 -200 -635 -201 -42 -1 -76 5 -96
15 -37 19 -503 409 -523 437 -7 11 -11 20 -8 20 3 0 112 -91 244 -201z m17
-117 c127 -107 245 -201 261 -210 20 -11 55 -16 105 -16 72 0 100 9 650 203
316 111 584 210 594 219 14 13 18 14 14 3 -2 -8 -15 -23 -29 -33 -36 -27
-1145 -418 -1204 -425 -96 -10 -114 0 -392 235 -141 119 -259 224 -261 232 -6
18 -35 41 262 -208z"/>
</g>
</svg>
