<?xml version="1.0" standalone="no"?>
<!DOCTYPE svg PUBLIC "-//W3C//DTD SVG 20010904//EN"
 "http://www.w3.org/TR/2001/REC-SVG-20010904/DTD/svg10.dtd">
<svg version="1.0" xmlns="http://www.w3.org/2000/svg"
 width="200.000000pt" height="200.000000pt" viewBox="0 0 200.000000 200.000000"
 preserveAspectRatio="xMidYMid meet">
<metadata>
Created by potrace 1.16, written by Peter Selinger 2001-2019
</metadata>
<g transform="translate(0.000000,200.000000) scale(0.100000,-0.100000)"
fill="#000000" stroke="none">
<path d="M1010 1836 c0 -3 45 -79 100 -171 59 -99 93 -164 82 -160 -90 37
-255 46 -356 20 -185 -48 -351 -202 -433 -402 -29 -71 -60 -201 -73 -303 -11
-94 -13 -306 -4 -388 7 -54 20 -68 29 -29 17 75 86 355 91 367 3 10 15 -4 35
-41 39 -71 112 -149 190 -199 236 -152 587 -119 1012 97 59 30 107 59 107 64
0 12 9 14 -187 -27 -96 -19 -177 -34 -179 -31 -2 2 8 19 22 38 139 185 138
439 -3 684 -72 126 -147 220 -285 358 -110 109 -148 141 -148 123z m143 -514
c133 -66 209 -187 209 -332 0 -109 -29 -178 -106 -256 -83 -82 -146 -108 -276
-108 -87 -1 -101 2 -162 31 -81 38 -147 102 -185 181 -24 50 -27 69 -28 152 0
85 3 101 29 154 70 143 201 219 367 213 74 -3 96 -8 152 -35z"/>
</g>
</svg>
