<?xml version="1.0" standalone="no"?>
<!DOCTYPE svg PUBLIC "-//W3C//DTD SVG 20010904//EN"
 "http://www.w3.org/TR/2001/REC-SVG-20010904/DTD/svg10.dtd">
<svg version="1.0" xmlns="http://www.w3.org/2000/svg"
 width="200.000000pt" height="200.000000pt" viewBox="0 0 200.000000 200.000000"
 preserveAspectRatio="xMidYMid meet">
<metadata>
Created by potrace 1.16, written by Peter Selinger 2001-2019
</metadata>
<g transform="translate(0.000000,200.000000) scale(0.100000,-0.100000)"
fill="#000000" stroke="none">
<path d="M1190 1645 c-140 -30 -230 -79 -230 -125 0 -22 128 -210 143 -210 7
0 35 14 63 32 123 79 261 126 399 137 72 5 80 8 83 28 7 52 -73 115 -177 139
-71 17 -197 16 -281 -1z"/>
<path d="M560 1575 c-9 -11 -7 -47 14 -172 15 -87 29 -166 32 -175 4 -13 556
-539 617 -587 15 -12 22 -12 42 -1 24 13 33 35 17 42 -22 9 -532 629 -532 647
0 15 6 21 23 21 17 0 84 -73 287 -316 145 -173 268 -318 272 -320 12 -8 48 15
48 31 0 18 -456 717 -475 728 -20 11 -313 117 -324 117 -5 0 -14 -7 -21 -15z"/>
<path d="M523 1160 c-30 -12 -128 -213 -153 -314 -29 -114 -27 -245 4 -311 27
-59 79 -108 132 -125 61 -20 234 -7 330 25 91 31 106 41 102 69 -2 16 -15 22
-70 31 -115 19 -158 70 -158 185 0 45 8 87 26 135 44 119 46 111 -45 200 -74
71 -128 116 -141 114 -3 0 -15 -4 -27 -9z"/>
<path d="M1346 650 c-86 -72 -156 -136 -156 -142 0 -17 33 -37 62 -38 14 0 40
11 56 25 17 14 34 25 40 25 5 0 47 -40 92 -90 45 -49 90 -90 100 -90 27 0 70
39 70 63 -1 12 -34 67 -74 121 l-73 99 39 35 c43 39 50 78 19 106 -18 16 -25
11 -175 -114z"/>
</g>
</svg>
