<?xml version="1.0" standalone="no"?>
<!DOCTYPE svg PUBLIC "-//W3C//DTD SVG 20010904//EN"
 "http://www.w3.org/TR/2001/REC-SVG-20010904/DTD/svg10.dtd">
<svg version="1.0" xmlns="http://www.w3.org/2000/svg"
 width="200" height="200" viewBox="0 0 200 200"
 preserveAspectRatio="xMidYMid meet">
<metadata>
Created by potrace 1.16, written by Peter Selinger 2001-2019
</metadata>
<g transform="translate(0.000000,200.000000) scale(0.100000,-0.100000)"
fill="#000000" stroke="none">
<path d="M1025 1744 c-22 -8 -96 -31 -165 -50 -206 -58 -273 -88 -445 -198
-76 -49 -209 -162 -228 -193 -29 -50 -33 -122 -10 -174 28 -62 527 -797 568
-836 33 -32 88 -53 135 -53 45 1 96 26 183 88 81 59 90 63 193 83 95 18 129
20 260 14 166 -8 201 -1 258 53 62 59 66 79 65 382 -1 151 -4 386 -8 522 l-6
246 -30 44 c-17 23 -49 53 -70 65 -39 22 -47 23 -350 22 -252 0 -318 -3 -350
-15z m663 -90 c49 -34 49 -39 57 -550 7 -457 7 -483 -11 -513 -34 -58 -52 -61
-369 -61 -231 0 -291 3 -314 15 -57 29 -58 36 -64 556 -5 459 -5 477 14 508
35 57 54 60 374 61 248 0 294 -2 313 -16z m-793 -386 c10 -472 9 -475 -53
-118 -29 168 -52 320 -52 339 0 24 9 42 34 67 64 64 63 70 71 -288z m-126
-237 c33 -190 59 -346 58 -348 -6 -5 -227 732 -227 754 0 38 20 69 58 91 l37
21 7 -87 c3 -48 34 -242 67 -431z m-259 384 c0 -14 52 -195 115 -402 64 -206
114 -377 112 -379 -1 -2 -76 148 -165 332 -102 212 -162 347 -162 366 0 24 10
40 42 70 49 45 58 47 58 13z m-60 -410 c135 -278 194 -402 182 -390 -24 25
-370 543 -376 563 -10 30 11 88 37 107 20 14 22 13 38 -28 9 -23 62 -136 119
-252z"/>
</g>
</svg>
