<?xml version="1.0" standalone="no"?>
<!DOCTYPE svg PUBLIC "-//W3C//DTD SVG 20010904//EN"
 "http://www.w3.org/TR/2001/REC-SVG-20010904/DTD/svg10.dtd">
<svg version="1.0" xmlns="http://www.w3.org/2000/svg"
 width="200.000000pt" height="200.000000pt" viewBox="0 0 200.000000 200.000000"
 preserveAspectRatio="xMidYMid meet">
<metadata>
Created by potrace 1.16, written by Peter Selinger 2001-2019
</metadata>
<g transform="translate(0.000000,200.000000) scale(0.100000,-0.100000)"
fill="#000000" stroke="none">
<path d="M1322 1647 l-192 -192 0 -125 0 -125 -178 -178 c-98 -98 -181 -175
-184 -172 -11 12 -68 -25 -81 -53 -21 -43 -13 -73 28 -109 21 -18 43 -33 49
-33 26 0 74 40 86 71 8 20 85 107 189 212 l176 177 120 0 120 0 195 195 c107
107 192 196 190 197 -3 2 -59 21 -124 43 l-120 40 -40 123 -41 122 -193 -193z
m163 -94 c20 -56 21 -57 79 -76 l58 -19 -106 -107 -106 -106 -77 3 -78 3 0 76
0 75 100 103 c55 57 102 103 105 104 3 1 14 -25 25 -56z"/>
<path d="M650 1354 c-147 -31 -304 -137 -386 -262 -55 -82 -96 -209 -100 -307
-9 -223 125 -455 321 -557 121 -62 278 -89 385 -65 244 55 425 229 487 467 30
120 16 251 -42 378 l-24 53 -38 -20 c-70 -37 -68 -32 -38 -106 32 -80 40 -197
19 -287 -39 -167 -169 -301 -342 -352 -49 -14 -185 -16 -232 -3 -77 20 -105
32 -156 65 -77 50 -128 109 -172 200 -30 63 -36 86 -40 166 -8 160 31 268 133
372 96 97 205 142 343 142 74 0 165 -19 213 -44 27 -13 28 -13 58 36 17 28 31
52 31 54 0 11 -154 66 -211 75 -82 14 -129 13 -209 -5z"/>
<path d="M690 1116 c-97 -28 -170 -78 -221 -152 -134 -195 -47 -460 178 -544
104 -39 183 -31 299 28 82 42 163 158 182 263 10 54 4 116 -12 122 -6 2 -33
-3 -60 -12 l-50 -16 -2 -56 c-5 -133 -101 -222 -240 -223 -62 0 -78 3 -120 30
-70 43 -107 108 -112 193 -3 44 1 79 10 101 38 90 129 150 223 147 l52 -2 11
59 c7 33 9 62 7 64 -11 11 -104 10 -145 -2z"/>
</g>
</svg>
