<svg id="f36a288e-37a4-468c-bd88-8a77cce08970" data-name="Layer 1" xmlns="http://www.w3.org/2000/svg" viewBox="0 0 500 500"><path d="M244.81,457.66c-27.92,0-54-4.65-77.53-13.83a177,177,0,0,1-61.67-40C88.48,386.64,75,365.68,65.47,341.56c-9.44-23.94-14.22-51-14.22-80.43,0-29.75,4.3-58,12.78-84.08,8.63-26.52,21.76-50,39-69.75,17.41-19.93,39.36-35.76,65.26-47C194,49,224.28,43.34,258.16,43.34c21.34,0,41.2,2.58,59,7.66a179.12,179.12,0,0,1,48.33,21.49,164.19,164.19,0,0,1,37.25,33,187.85,187.85,0,0,1,26,41.23,210.78,210.78,0,0,1,15.13,46.69,250.94,250.94,0,0,1,4.89,49.4c0,32.9-4.91,62.93-14.58,89.24-9.8,26.63-23.88,49.56-41.84,68.15a180.75,180.75,0,0,1-65.06,42.87C302.43,452.76,274.69,457.66,244.81,457.66Zm10.88-309.61c-8.55,0-16,1.29-22.2,3.85A53.8,53.8,0,0,0,217,162.46a60.52,60.52,0,0,0-12,16,113.3,113.3,0,0,0-8.55,21.78,158.87,158.87,0,0,0-4.82,24.93,234.17,234.17,0,0,0-1.51,26.27A250.36,250.36,0,0,0,193,289.14a110.12,110.12,0,0,0,9.79,32.19,56,56,0,0,0,17.46,21.1c6.73,4.92,15.5,7.31,26.79,7.31,8.23,0,15.43-1.36,21.39-4a50.08,50.08,0,0,0,16-11.2,72.52,72.52,0,0,0,12.35-17.65,120.12,120.12,0,0,0,8.72-23,175.16,175.16,0,0,0,4.87-26,243.84,243.84,0,0,0,1.51-26.44,167.47,167.47,0,0,0-1.48-21.43,155.73,155.73,0,0,0-4.6-22.32,108.63,108.63,0,0,0-8-20.25,72.76,72.76,0,0,0-11.12-16,42.84,42.84,0,0,0-13.57-9.85A41.3,41.3,0,0,0,255.69,148.05Z" fill="#fff"/><path d="M258.16,59.34q29.93,0,54.65,7a162.46,162.46,0,0,1,44,19.53,147.68,147.68,0,0,1,33.63,29.8,171.17,171.17,0,0,1,23.74,37.72,194.51,194.51,0,0,1,14,43.15,234.73,234.73,0,0,1,4.57,46.24q0,46.74-13.6,83.71t-38.33,62.57a164.18,164.18,0,0,1-59.35,39.07q-34.64,13.47-76.66,13.48-39.08,0-71.72-12.74A160.15,160.15,0,0,1,117,392.57Q93.46,369,80.36,335.69T67.25,261.13q0-42.28,12-79.13t35.86-64.17Q139,90.5,174.7,74.92t83.46-15.58M247,365.74q15.82,0,28-5.44a66.76,66.76,0,0,0,21-14.72,88.31,88.31,0,0,0,15.08-21.51A135.1,135.1,0,0,0,321,298a189.08,189.08,0,0,0,5.32-28.44,257.82,257.82,0,0,0,1.61-28.19,182.75,182.75,0,0,0-1.61-23.49,171.24,171.24,0,0,0-5.07-24.61A124.36,124.36,0,0,0,312.07,170a88.12,88.12,0,0,0-13.6-19.53A59,59,0,0,0,279.92,137a57,57,0,0,0-24.23-4.94q-16.08,0-28.32,5.07A69.48,69.48,0,0,0,206,150.84a76.06,76.06,0,0,0-15.21,20.28A128.59,128.59,0,0,0,181,196a172.87,172.87,0,0,0-5.32,27.45,247.86,247.86,0,0,0-1.61,28.07,265.53,265.53,0,0,0,3.09,40.06,125.8,125.8,0,0,0,11.25,36.85,72.33,72.33,0,0,0,22.38,27Q225,365.74,247,365.74m11.13-338.4c-36.1,0-68.48,6.14-96.25,18.25C133.83,57.83,110,75.05,91,96.78c-18.69,21.4-32.89,46.74-42.19,75.32-9,27.64-13.56,57.6-13.56,89s5.16,60.48,15.34,86.3c10.3,26.15,25,48.94,43.68,67.71a192.62,192.62,0,0,0,67.19,43.59c25.39,9.91,53.43,14.93,83.35,14.93,31.87,0,61.57-5.27,88.26-15.66a196.67,196.67,0,0,0,70.76-46.66c19.52-20.2,34.78-45,45.35-73.75,10.33-28.09,15.57-60,15.57-94.76a267.49,267.49,0,0,0-5.2-52.55,227.41,227.41,0,0,0-16.28-50.23,204.34,204.34,0,0,0-28.16-44.74,180.42,180.42,0,0,0-40.89-36.25,195.31,195.31,0,0,0-52.63-23.45c-19.27-5.49-40.61-8.27-63.43-8.27ZM247,333.74c-7.67,0-13.51-1.42-17.35-4.23a40.4,40.4,0,0,1-12.55-15.25,94.26,94.26,0,0,1-8.32-27.53,234.18,234.18,0,0,1-2.73-35.24,218.79,218.79,0,0,1,1.4-24.47,143.54,143.54,0,0,1,4.34-22.41,96.74,96.74,0,0,1,7.33-18.7A43.89,43.89,0,0,1,228,174.08a37.43,37.43,0,0,1,11.65-7.4c4.22-1.75,9.63-2.63,16.07-2.63a25.67,25.67,0,0,1,10.74,2,26.85,26.85,0,0,1,8.58,6.23,56.16,56.16,0,0,1,8.64,12.47A92.75,92.75,0,0,1,290.43,202a140.09,140.09,0,0,1,4.13,20,151.24,151.24,0,0,1,1.34,19.36A226.87,226.87,0,0,1,294.48,266a158.93,158.93,0,0,1-4.42,23.66,104,104,0,0,1-7.55,19.95,56.21,56.21,0,0,1-9.6,13.77,34.4,34.4,0,0,1-11,7.68c-3.9,1.75-8.89,2.64-14.85,2.64Z" fill="#231f20"/></svg>