<svg id="ba2b1a3a-7e0a-4b2c-8411-4f685d378ade" data-name="Layer 1" xmlns="http://www.w3.org/2000/svg" viewBox="0 0 500 500"><path d="M196,463.44a29.45,29.45,0,0,1-17.54-5.65c-4.6-3.35-10.07-10-10.07-22.5,0-1.47.09-3.58.3-6.84.17-2.72.4-7,.66-12.67s.63-14.1,1.08-24.79,1.09-24.47,1.89-40.76,1.8-36.55,3-60.5,2.52-52,4-84.24,3.29-69.5,5.27-111.81a1,1,0,0,1,0-.17,97.1,97.1,0,0,1,1.9-16.21c2.11-8.7,8.81-14.82,18.42-16.86l93-22.32a42.93,42.93,0,0,1,10.93-1.56c8.11,0,15,3.68,18.92,10.09,2.65,4.33,3.83,9.74,3.83,17.52,0,.26,0,.51,0,.77L315.68,399.05a85.38,85.38,0,0,1-1.37,12.63,37.38,37.38,0,0,1-4.14,11.5,27.14,27.14,0,0,1-9.42,9.68,43.55,43.55,0,0,1-8.95,4.1l-.55.17L206.71,462l-.64.17A41.43,41.43,0,0,1,196,463.44Z" fill="#fff"/><path d="M308.88,52.56q3.78,0,5.27,2.43t1.48,9.18L299.7,398.28a69.27,69.27,0,0,1-1.08,10.27,21.75,21.75,0,0,1-2.3,6.61,11.29,11.29,0,0,1-3.91,4.06,27.92,27.92,0,0,1-5.68,2.56l-84.54,24.85a25.6,25.6,0,0,1-6.21.81,13.31,13.31,0,0,1-8.1-2.57q-3.51-2.56-3.51-9.58,0-1.62.27-5.81t.67-13q.41-8.77,1.08-24.84T188.28,351q1.22-24.58,3-60.51t4.06-84.27q2.3-48.35,5.26-111.82a85.74,85.74,0,0,1,1.49-13.37c.63-2.61,2.74-4.27,6.35-5l93.45-22.42a27.83,27.83,0,0,1,7-1.08m0-32a58.66,58.66,0,0,0-14.83,2L201.37,44.84c-15.54,3.37-26.88,14-30.42,28.71-1.12,4.64-1.84,10.52-2.33,19,0,.11,0,.22,0,.33-2,42.11-3.75,79.72-5.27,111.8s-2.88,60.4-4.05,84.22-2.16,44.1-3,60.49-1.45,30.15-1.9,40.88-.81,18.94-1.07,24.72c-.26,5.63-.48,9.8-.65,12.38-.23,3.6-.33,6-.33,7.87,0,20.24,10.42,30.88,16.63,35.42a45.38,45.38,0,0,0,27,8.73,57.22,57.22,0,0,0,14-1.77c.43-.1.85-.22,1.27-.34l84.54-24.85,1.09-.34a59.39,59.39,0,0,0,12.24-5.62A43,43,0,0,0,324,431.2a53.07,53.07,0,0,0,6-16.38,99.52,99.52,0,0,0,1.66-15.08l15.94-334q0-.77,0-1.53c0-6.76-.64-16.8-6.18-25.87-6.79-11.11-19-17.74-32.57-17.74Z" fill="#231f20"/></svg>