<svg id="ff1021eb-3dfe-438f-8c79-b79ace80e685" data-name="Layer 1" xmlns="http://www.w3.org/2000/svg" viewBox="0 0 500 500"><path d="M163.73,457.66c-18.81,0-31.53-1.58-40-5-12.47-5-19.63-14.5-19.63-26.09,0-6.07,1.81-12.49,5.37-19.08,2.51-4.64,5.7-9.93,9.5-15.73l.3-.43q16.33-23.22,33.19-47.11c11.4-16.15,22.2-31.53,32.1-45.73s19.41-28,28-40.56c8.39-12.33,15.42-22.87,20.89-31.33a79.12,79.12,0,0,0,8-16.47,40.36,40.36,0,0,0,2.27-12.49,22.17,22.17,0,0,0-2.34-10.61,23.38,23.38,0,0,0-7.05-8,38.87,38.87,0,0,0-12.4-5.82,63.22,63.22,0,0,0-17.08-2.2,88.53,88.53,0,0,0-25.06,3.8,98.71,98.71,0,0,0-25.44,12c-6.2,4-11.56,5.9-16.88,5.9a19.49,19.49,0,0,1-18.62-12.5,27.91,27.91,0,0,1-2-10.14,141.64,141.64,0,0,1,2.84-26.24c1.76-9.13,3.77-18.06,6-26.54,2.14-8.2,4.11-15.45,5.85-21.54,1.4-4.91,1.88-6.88,2-7.57a16,16,0,0,1,8.73-12.55c.62-.42,1.94-1.35,4.55-3.28,5.32-3.93,12.9-8,23.17-12.33,10-4.24,22.36-8,37.83-11.47s34.39-5.24,56.22-5.24a113.59,113.59,0,0,1,42.9,8.71A128.53,128.53,0,0,1,344.82,75.8a124.38,124.38,0,0,1,27.39,35.86,100.12,100.12,0,0,1,10.93,45.94,105.65,105.65,0,0,1-4.48,30,135.52,135.52,0,0,1-13.2,29.64c-1.56,3.22-3.91,7.55-7.16,13.21s-7.26,12.37-11.71,19.65L332.3,273.4c-5.15,8.41-10.38,16.84-15.54,25.05s-10.23,16.23-15.09,23.91c-3,4.78-5.74,9.08-8.19,13,5-.45,10.47-1,16.18-1.6,7.2-.79,14.43-1.45,21.47-2l19.45-1.41c6.52-.45,11.86-.67,16.31-.67,26.92,0,29,16.54,29,21.61A30.89,30.89,0,0,1,392.1,366c-.43.8-.7,1.33-.87,1.66a15.67,15.67,0,0,1-1.05,2.42l-36.6,68.37a16.53,16.53,0,0,1-5.5,7.59c-5.62,5.23-11.54,8.24-17.61,8.95-2.64.31-4.88.62-6.65.91a16.38,16.38,0,0,1-2.43.22c-15.19.18-27.69.34-38.22.51-11.13.16-21.24.29-30.08.38s-17,.17-24.21.26l-21.17.25c-7.06.09-14.13.13-21,.13Zm228.35-95.05Z" fill="#fff"/><path d="M264,59.34a97.25,97.25,0,0,1,36.88,7.53,112,112,0,0,1,33.17,20.8A108,108,0,0,1,358,118.93a83.91,83.91,0,0,1,9.18,38.67A88.89,88.89,0,0,1,363.32,183a119.13,119.13,0,0,1-12,26.67q-2,4.35-6.89,12.77T333,241.69l-14.3,23.36q-7.65,12.51-15.44,24.88t-15.06,23.86q-7.26,11.49-12.76,20.29t-12.12,19.27c0,.17.68.26,2,.26q3.06,0,10.08-.64t16.21-1.4q9.18-.76,19.78-1.92t20.93-1.91l19.39-1.41q9.06-.63,15.19-.63,13,0,13,5.61a15,15,0,0,1-1.92,7.15,20,20,0,0,0-1.91,4.08L339.33,431.2c-.35,0-.56.38-.64,1.14s-.3,1.15-.64,1.15q-5.12,5.11-9.44,5.62c-2.9.34-5.36.68-7.4,1q-21.7.25-38.29.51t-30,.38q-13.4.14-24.24.26l-21.18.25q-10.35.12-20.8.13h-23q-24.49,0-34.07-3.83t-9.57-11.23q0-5.1,3.45-11.48t8.8-14.55q16.33-23.22,33.18-47.09t32.16-45.81Q213,285.73,225.75,267t21.19-31.77a95.23,95.23,0,0,0,9.69-20,55.86,55.86,0,0,0,3.07-17.48,38.06,38.06,0,0,0-4.21-18.12,39.46,39.46,0,0,0-11.74-13.4,54.42,54.42,0,0,0-17.49-8.29,78.69,78.69,0,0,0-21.43-2.81,104.06,104.06,0,0,0-29.61,4.46,113.91,113.91,0,0,0-29.6,13.91c-3.41,2.22-6.13,3.32-8.17,3.32a3.55,3.55,0,0,1-3.7-2.3,11.87,11.87,0,0,1-.9-4.33,124.45,124.45,0,0,1,2.56-23.23q2.53-13.26,5.74-25.52t5.74-21.18q2.55-8.94,2.55-10.21c.34,0,2.64-1.58,6.89-4.72s10.89-6.64,19.91-10.47S197,67.42,211.33,64.19s31.95-4.85,52.71-4.85m0-32c-23.34,0-42.87,1.84-59.72,5.63-16.43,3.69-29.7,7.74-40.59,12.36-11.6,4.92-20,9.43-26.43,14.19-1.68,1.24-2.74,2-3.37,2.45a32,32,0,0,0-16.15,23.36c-.21.84-.68,2.63-1.66,6.07-1.78,6.22-3.78,13.59-5.94,21.9-2.29,8.8-4.38,18.07-6.2,27.55a155.11,155.11,0,0,0-3.13,29.26,43.89,43.89,0,0,0,3.08,16,35.62,35.62,0,0,0,33.52,22.67c8.44,0,16.81-2.77,25.6-8.48a82.34,82.34,0,0,1,21.27-10.07,72.61,72.61,0,0,1,20.51-3.14,47,47,0,0,1,12.75,1.61,23,23,0,0,1,7.33,3.36,7.28,7.28,0,0,1,2.33,2.57,7,7,0,0,1,.46,3.08,24.74,24.74,0,0,1-1.46,7.48,64.15,64.15,0,0,1-6.35,12.94c-5.41,8.34-12.34,18.73-20.6,30.88-8.52,12.53-17.9,26.12-27.85,40.39s-20.7,29.57-32.06,45.67c-11.82,16.74-22.68,32.16-33.21,47.13-.2.28-.4.57-.59.86-4.1,6.26-7.44,11.78-10.19,16.88-4.85,9-7.3,18-7.3,26.7,0,18.2,11.1,33.51,29.69,40.94,10.58,4.23,24.75,6.12,45.95,6.12h23c6.91,0,14,0,21.18-.13l21.17-.26q10.83-.12,24.17-.25c8.92-.09,18.79-.21,30.18-.39,10.48-.16,23-.32,38.17-.5a33,33,0,0,0,4.86-.43c1.53-.26,3.53-.53,5.93-.82,9.26-1.08,18-5.3,26-12.56a32.78,32.78,0,0,0,9.81-13.22l36.11-67.46a30.41,30.41,0,0,0,1.62-3.53l.3-.56a46.7,46.7,0,0,0,5.7-22.24c0-14.71-8.65-27.58-22.58-33.59-6.27-2.71-13.61-4-22.44-4-4.83,0-10.53.23-17.42.71-6.51.46-13.07.94-19.53,1.42-1.82.13-3.65.27-5.49.43L330.3,307c5.24-8.34,10.51-16.82,15.64-25.21q6.78-11.06,12.75-20.83l1.55-2.54c4.54-7.41,8.55-14.14,11.92-20s5.7-10.14,7.42-13.65A150.48,150.48,0,0,0,394,192.1a121.2,121.2,0,0,0,5.15-34.5,115.86,115.86,0,0,0-12.69-53.22,140.2,140.2,0,0,0-30.89-40.44A144.48,144.48,0,0,0,313,37.23,129.66,129.66,0,0,0,264,27.34Z" fill="#231f20"/></svg>