<svg id="af747e9c-9fec-4e10-982b-b404c00db077" data-name="Layer 1" xmlns="http://www.w3.org/2000/svg" viewBox="0 0 500 500"><path d="M240.46,457.82a197.32,197.32,0,0,1-54.61-7.41c-8.4-2.37-17-5.29-25.68-8.69-8-3.14-16.62-6.67-25.73-10.5A23.35,23.35,0,0,1,121.62,422a30.68,30.68,0,0,1-4.68-11.1,53.47,53.47,0,0,1-1.07-8.69c-.06-1.54-.15-2.86-.25-3.91-.36-2.35-.85-6.08-1.5-11.37s-1.39-10.89-2.2-16.71-1.63-11.49-2.44-16.74c-.84-5.45-1.33-8-1.57-9.05a21.86,21.86,0,0,1-.84-6.38,22.74,22.74,0,0,1,8.53-18A24.33,24.33,0,0,1,131,314.37a20.88,20.88,0,0,1,9.4,2.19,15,15,0,0,1,1.35.76c5.77,3.63,11.83,7.5,18,11.51a143,143,0,0,0,17.59,9.69,124.11,124.11,0,0,0,19.74,7.12,86.19,86.19,0,0,0,22.32,2.66c8.25,0,14.56-1.46,17.77-4.12,2.3-1.91,3.62-7.12,3.62-14.31a64.76,64.76,0,0,0-1-10.57,22.22,22.22,0,0,0-3-8,15.44,15.44,0,0,0-5.65-5.13c-2.39-1.39-6.47-2.16-11.51-2.16H175.07a16,16,0,0,1-16-16,74.82,74.82,0,0,1,.88-9q.75-5.76,1.88-13.87t2.34-17.07q1.26-9.09,2.37-16.93c.74-5.2,1.42-9.74,2-13.5.54-3.41.91-5.57,1.36-7.26,1.32-6.8,2.79-11.39,4.72-14.82,5.4-9.55,13-11,17-11a16,16,0,0,1,5.8,1.09,15.9,15.9,0,0,0,4.62,1.06c2.71.22,5.45.32,8.15.32,7.21,0,12.35-1.56,15.74-4.77,1.15-1.09,4.67-4.43,4.67-15.14a23.66,23.66,0,0,0-1-7,10.83,10.83,0,0,0-2.25-4.08,13.14,13.14,0,0,0-4.46-3.17,17.61,17.61,0,0,0-7.21-1.22,138.25,138.25,0,0,0-16.3,1c-5.72.69-11.45,1.62-17,2.76s-11.28,2.48-16.59,3.88-10.21,2.83-14.55,4.22a15.81,15.81,0,0,1-4.89.77,16,16,0,0,1-15.79-18.63,62.41,62.41,0,0,0,.53-9.75c0-2.14,0-4.47-.12-6.93-.08-2.78-.13-5.7-.13-8.67,0-5.43.18-11,.53-16.6a93.26,93.26,0,0,1,2.71-17.63,55.58,55.58,0,0,1,7-16.35,31.87,31.87,0,0,1,17.54-13.23c9.51-3.06,17.88-5.48,24.86-7.2a206.11,206.11,0,0,1,20.27-4c6.27-.9,12.64-1.49,18.91-1.76,6-.26,12.88-.39,20.5-.39a179.86,179.86,0,0,1,45.27,6,139.68,139.68,0,0,1,42.78,19,109.9,109.9,0,0,1,32.43,33.73c8.73,14.15,13.16,30.94,13.16,49.89a105.18,105.18,0,0,1-5.17,33.58,116,116,0,0,1-12.82,26.73,125.87,125.87,0,0,1-16.21,20,.39.39,0,0,0,.1.08,93.5,93.5,0,0,1,19.33,21.19,117.44,117.44,0,0,1,14.11,29.67c3.72,11.45,5.61,24.87,5.61,39.86a127.92,127.92,0,0,1-9.17,47.25,144.32,144.32,0,0,1-24.93,41.22A139.39,139.39,0,0,1,309.92,442a119.81,119.81,0,0,1-48.18,14.72c-3.67.35-7.31.61-10.83.79S243.84,457.82,240.46,457.82Z" fill="#fff"/><path d="M243.18,59.18a163.39,163.39,0,0,1,41.24,5.45,123.26,123.26,0,0,1,37.89,16.84A93.51,93.51,0,0,1,350,110.33q10.79,17.46,10.78,41.48a88.87,88.87,0,0,1-4.34,28.48,99.21,99.21,0,0,1-11,23A107.83,107.83,0,0,1,331.1,221a166.61,166.61,0,0,1-14.37,12.75,131.21,131.21,0,0,1,16.1,11,77.2,77.2,0,0,1,16,17.59A101.07,101.07,0,0,1,360.94,288q4.83,14.87,4.83,34.92a111.31,111.31,0,0,1-8,41.36A127.45,127.45,0,0,1,335.56,401a122.7,122.7,0,0,1-33.44,27.12,103.58,103.58,0,0,1-41.85,12.75c-3.47.33-6.85.58-10.16.75s-6.52.25-9.65.25a186.05,186.05,0,0,1-26.13-1.74A183.71,183.71,0,0,1,190.18,435,249.78,249.78,0,0,1,166,426.83q-12.27-4.83-26.38-10.77a7.66,7.66,0,0,1-4.83-3.1,14.6,14.6,0,0,1-2.23-5.32,37,37,0,0,1-.74-6.07c-.08-2.06-.21-3.84-.37-5.32Q131,393,130,385t-2.23-17q-1.23-8.91-2.47-17t-2-11a5.3,5.3,0,0,1-.24-2,6.82,6.82,0,0,1,2.6-5.58,8.41,8.41,0,0,1,5.32-2.1,4.91,4.91,0,0,1,2.23.49q8.67,5.46,17.83,11.4A158.81,158.81,0,0,0,170.62,353a139.29,139.29,0,0,0,22.29,8.05,101.11,101.11,0,0,0,26.5,3.22q18.57,0,28-7.8t9.41-26.63a79.59,79.59,0,0,0-1.24-13.25A38.18,38.18,0,0,0,250.49,303a31.25,31.25,0,0,0-11.27-10.65Q231.78,288,219.65,288H175.07q0-1.25.75-6.93t1.85-13.75q1.13-8.05,2.36-17.09t2.35-16.84q1.11-7.8,2-13.25a48.55,48.55,0,0,1,1.12-5.94q1.49-7.93,3.09-10.77c1.08-1.9,2.11-2.85,3.1-2.85a32.34,32.34,0,0,0,9.16,2.1c3.14.25,6.27.37,9.41.37q17.08,0,26.75-9.16t9.66-26.75a39.65,39.65,0,0,0-1.74-11.64,26.59,26.59,0,0,0-5.57-10,29.34,29.34,0,0,0-9.66-7.06,32.87,32.87,0,0,0-14-2.72,151.27,151.27,0,0,0-18.2,1.12q-9.28,1.11-18.33,3t-17.46,4.08q-8.41,2.24-15.35,4.46a80.35,80.35,0,0,0,.74-12.38q0-3.47-.12-7.43c-.09-2.64-.13-5.37-.13-8.17q0-7.68.5-15.61a77.19,77.19,0,0,1,2.23-14.61,39,39,0,0,1,5-11.64,15.79,15.79,0,0,1,8.91-6.68q13.88-4.47,23.9-6.94A190,190,0,0,1,206,61.17a172.18,172.18,0,0,1,17.34-1.61q8.67-.37,19.81-.38m0-32c-7.85,0-15,.14-21.18.41-6.81.29-13.7.93-20.49,1.9s-14.16,2.43-21.85,4.32c-7.32,1.81-16,4.33-25.83,7.48a47.7,47.7,0,0,0-26.14,19.77,71.5,71.5,0,0,0-9.1,21,109.59,109.59,0,0,0-3.19,20.65c-.37,5.92-.56,11.84-.56,17.6,0,3.12,0,6.21.14,9.17.07,2.3.11,4.46.11,6.43a52.11,52.11,0,0,1-.31,7.12,32,32,0,0,0,41.36,35.73c4.07-1.31,8.7-2.66,13.75-4l3.59-.93a38.2,38.2,0,0,0-12.77,13.81c-2.8,5-4.74,10.76-6.41,19.19-.63,2.51-1.05,5.16-1.54,8.24-.6,3.78-1.29,8.41-2.06,13.76s-1.55,11-2.38,17-1.6,11.69-2.34,17-1.39,10.13-1.89,14a85.18,85.18,0,0,0-1,11.07,31.87,31.87,0,0,0,3,13.53A36.72,36.72,0,0,0,131,298.37a40.17,40.17,0,0,0-25.46,9.23,39,39,0,0,0-14.46,30.45,38.49,38.49,0,0,0,1.31,10.28c.19.91.6,3.09,1.29,7.58.8,5.2,1.61,10.75,2.41,16.5s1.52,11.3,2.16,16.48,1.12,8.84,1.49,11.35c0,.52.1,1.37.15,2.61a70.18,70.18,0,0,0,1.39,11.32A46.63,46.63,0,0,0,108.42,431a39.53,39.53,0,0,0,20.49,15.22c9,3.77,17.52,7.25,25.4,10.36,9.13,3.59,18.29,6.69,27.21,9.2a212.4,212.4,0,0,0,58.94,8c3.65,0,7.44-.1,11.25-.29s7.59-.47,11.48-.84A135.76,135.76,0,0,0,317.71,456a155.35,155.35,0,0,0,42.06-34.15,160,160,0,0,0,27.7-45.78,143.63,143.63,0,0,0,10.3-53.15c0-16.67-2.15-31.75-6.4-44.81a133.23,133.23,0,0,0-16.08-33.7,119.36,119.36,0,0,0-10.43-13.31q3.81-4.86,7.33-10.2a131.36,131.36,0,0,0,14.62-30.42,121,121,0,0,0,6-38.69c0-22-5.23-41.58-15.54-58.29a125.76,125.76,0,0,0-37.13-38.61,155.41,155.41,0,0,0-47.67-21.24,195.6,195.6,0,0,0-49.3-6.49ZM197.37,169.11c1.31-.18,2.62-.36,3.93-.51a120.41,120.41,0,0,1,13.34-.88,18.32,18.32,0,0,1-.25,3,19.32,19.32,0,0,1-4.15.37c-2.28,0-4.6-.09-6.89-.27h0l-.08,0a32.17,32.17,0,0,0-5.9-1.66ZM176.2,320h43.45a20.41,20.41,0,0,1,3.86.29A6.29,6.29,0,0,1,224,322a48.54,48.54,0,0,1,.79,7.9c0,.81,0,1.51-.06,2.11a39,39,0,0,1-5.33.32,70,70,0,0,1-18.14-2.11A107.82,107.82,0,0,1,184.09,324c-2.7-1.26-5.34-2.59-7.89-4Z" fill="#231f20"/></svg>