<svg id="e9b6dbee-87a5-4352-9b25-05a52900d72a" data-name="Layer 1" xmlns="http://www.w3.org/2000/svg" viewBox="0 0 500 500"><path d="M244.51,458.41a26,26,0,0,1-15.24-4.8c-3.45-2.47-9.25-8.33-9.25-19.93,0-8.05.38-18.28,1.12-30.42.45-7.32,1-15.4,1.67-24.13l-23.19.28c-13.43.16-26.06.28-37.52.36-11.17.08-21.44.12-30.52.12H112c-15.17,0-26-.53-33.2-1.63-5.73-.89-10.31-2.6-14-5.24a21.22,21.22,0,0,1-9-17.36,28.71,28.71,0,0,1,4.77-15.13l7.93-13.22q5.82-9.71,14-23.18l17.68-29.31q9.59-15.88,19.28-31.9l50.41-83.12c5.85-9.7,11.13-19.35,15.66-28.64a206.45,206.45,0,0,1,17.08-29A110.86,110.86,0,0,1,226.56,77.5c9.79-7.31,22.35-12.56,37.35-15.62l76.13-20a41.1,41.1,0,0,1,10.6-1.49,21.82,21.82,0,0,1,15.54,6.24c6.28,6.3,6.28,14.74,6.28,17.51v2.67c0,.23,0,.46,0,.69-.64,15-1.3,28.73-1.94,40.87-.64,11.91-1.29,23.52-1.95,34.51s-1.35,21.55-2.07,31.58-1.42,20.67-2.05,31.18c-.65,11-1.3,22.56-1.93,34.42-.39,7.3-.78,15.17-1.16,23.51l9.65-.24c7.88-.18,11.48-.25,12.85-.25a16.82,16.82,0,0,1,2.65.22,35,35,0,0,1,10.78,3.77c3.42,1.86,11.29,7.56,11.29,20.74a25,25,0,0,1-.79,6.85c-.31,1.21-.7,2.89-1.2,5s-1,4.69-1.53,7.54c-.62,3.44-1.28,7-2,10.56-.76,3.88-1.42,7.38-2,10.68l-.06.31-5.57,27.63a30.84,30.84,0,0,1-4.31,11.16c-3.35,5-8.75,8.18-16.07,9.44a93.75,93.75,0,0,1-15.18,1h-8.52s-2.95,30.05-3,30.12a37.73,37.73,0,0,1-1.69,7.64,20.94,20.94,0,0,1-12.18,12.86c-1.41.6-4.1,1.68-8.2,3.28s-9.22,3.56-14.92,5.68-11.94,4.4-18.29,6.7c-6.71,2.43-13,4.64-18.81,6.56s-11.37,3.68-16.16,5.05C251.75,457.67,247.81,458.41,244.51,458.41ZM233.31,267.2c1-6.83,2-13.9,2.82-21.13,1.42-12.08,2.62-24.54,3.57-37q.36-4.7.69-9.41L200,267.2Z" fill="#fff"/><path d="M350.64,56.39A5.72,5.72,0,0,1,354.88,58q1.58,1.59,1.58,6.18v2.67q-1,22.53-1.94,40.71t-1.94,34.41q-1,16.23-2.06,31.38t-2.06,31.38q-1,16.23-1.94,34.53t-1.94,40.83q16.25-.48,26.78-.73c7-.15,11.19-.24,12.48-.24a18.83,18.83,0,0,1,5.82,2.06q2.89,1.58,2.9,6.67a9.78,9.78,0,0,1-.24,2.66c-.32,1.3-.77,3.15-1.33,5.57s-1.13,5.21-1.7,8.36-1.21,6.59-1.94,10.3-1.41,7.36-2.06,10.91l-5.57,27.62a15.35,15.35,0,0,1-1.94,5.45c-.81,1.22-2.62,2.06-5.45,2.55a80.19,80.19,0,0,1-12.48.73h-23l-4.36,44.34a21.2,21.2,0,0,1-1,4.36,5.07,5.07,0,0,1-3.15,3.15q-1.69.74-7.88,3.15t-14.66,5.58q-8.47,3.15-18.17,6.66t-18.42,6.42q-8.72,2.91-15.51,4.85t-9.2,1.94a9.94,9.94,0,0,1-5.94-1.82q-2.55-1.81-2.55-6.91,0-11.62,1.09-29.44t3-41.32l-40.71.49q-20.12.24-37.44.36t-30.41.12H112q-21.32,0-30.77-1.45t-9.45-6.78a13.4,13.4,0,0,1,2.42-6.79q2.19-3.63,8-13.33T96.08,312.4l17.69-29.32q9.57-15.87,19.27-31.86l50.4-83.12q9.21-15.27,16.36-29.93a189.31,189.31,0,0,1,15.75-26.78,94.64,94.64,0,0,1,20.59-21.08q12-9,31.39-12.84L344.1,57.36a25.45,25.45,0,0,1,6.54-1M260,135.63,171.81,283.2h75.12q2.91-16.72,5.09-35.26t3.63-37.68q1.46-19.14,2.55-38T260,135.63M350.64,24.39a57.84,57.84,0,0,0-14.74,2L260.26,46.29C243.13,49.84,228.57,56,217,64.68a127,127,0,0,0-27.54,28.19A223.28,223.28,0,0,0,171,124.15c-4.32,8.86-9.36,18.08-15,27.4l-50.38,83.07c-6.21,10.26-12.71,21-19.3,31.93L68.68,295.87c-4.72,7.83-9.3,15.42-14,23.2l-5.63,9.4-2.25,3.74c-4.71,7.64-7.1,15.53-7.1,23.45A37,37,0,0,0,55.43,386c5.78,4.15,12.61,6.78,20.88,8.06,8.11,1.24,19.43,1.82,35.64,1.82h19.63c9,0,19.34,0,30.65-.12,11.53-.08,24.18-.2,37.59-.36l5.8-.07q-.24,3.57-.45,7c-.77,12.63-1.15,22.9-1.15,31.39,0,18.76,10,28.7,15.95,32.95a41.93,41.93,0,0,0,24.54,7.78c4.89,0,10.11-.92,18-3.17,5-1.44,10.67-3.21,16.84-5.26,5.92-2,12.38-4.22,19.19-6.69,6.46-2.34,12.66-4.61,18.43-6.76s10.91-4.09,15.21-5.78c5.34-2.09,7.45-3,8.51-3.41a37.18,37.18,0,0,0,21.17-22.55,52.88,52.88,0,0,0,2.42-10.92c0-.15,0-.29,0-.44l1.54-15.57a88.37,88.37,0,0,0,11.89-1.09c14.7-2.53,22.61-10.26,26.65-16.3a46.49,46.49,0,0,0,6.71-17l5.56-27.58.12-.62c.59-3.25,1.24-6.67,2-10.47s1.4-7.28,2-10.75c.48-2.64.93-4.89,1.37-6.75.48-2.07.85-3.64,1.12-4.7a41.48,41.48,0,0,0,1.29-10.83c0-15.1-7.33-28.1-19.62-34.78l-.06,0a50.76,50.76,0,0,0-15.75-5.47,32.37,32.37,0,0,0-5.29-.44c-.85,0-2.27,0-5.69.09q.17-3.19.33-6.25c.63-11.91,1.27-23.45,1.92-34.32.63-10.45,1.31-20.87,2-31s1.43-20.8,2.08-31.77,1.31-22.58,2-34.61c.66-12.3,1.31-26.1,2-41,0-.45,0-.91,0-1.37V64.14c0-11.82-3.67-21.5-10.91-28.77l-.08-.07a37.65,37.65,0,0,0-26.83-10.91Z" fill="#231f20"/></svg>