<svg id="a6d34cb9-26c9-4bc5-9862-6d3506312b2b" data-name="Layer 1" xmlns="http://www.w3.org/2000/svg" viewBox="0 0 500 500"><path d="M187.71,461.44a294.31,294.31,0,0,1-31.77-1.69,86.66,86.66,0,0,1-30.9-9,23.51,23.51,0,0,1-7.38-5.57c-1.49-1.62-5.53-6-5.53-12.75a15.94,15.94,0,0,1,.64-4.5l19.87-67.68a14.17,14.17,0,0,1,.49-1.43,22.54,22.54,0,0,1,7.19-9.26,23.38,23.38,0,0,1,14.78-5h1.47a16.36,16.36,0,0,1,2.43.19,151.92,151.92,0,0,0,16.06,1.67c5.23.23,11.54.35,18.78.35A155.26,155.26,0,0,0,216,345.25a49.67,49.67,0,0,0,16-4.94,22.62,22.62,0,0,0,8.83-8.27c2.14-3.45,3.22-8.53,3.22-15.1,0-7.83-1.32-13.91-3.83-17.58a24.09,24.09,0,0,0-10.42-8.73,57.13,57.13,0,0,0-18.21-4.46c-8-.69-16-1-23.88-1-3,0-5.77,0-8.2.11-2.59.09-5.12.13-7.49.13-7.68,0-12.71-.76-16.82-2.56-7.77-3.37-12.42-11.06-12.42-20.55a51.56,51.56,0,0,1,.34-5.7c.16-1.47.39-3.11.68-4.95.53-14.81,1.75-29.85,3.64-44.7s4.1-30,6.59-45,5.08-29.84,7.77-44.53c2.64-14.42,5-29.07,7.14-43.54a16,16,0,0,1,14-13.6c31.45-3.64,62.33-7.15,91.78-10.43,29.75-3.32,60.68-7.06,91.91-11.13a17.83,17.83,0,0,1,2.07-.13c12.59,0,19.18,10.64,19.18,21.15a27.82,27.82,0,0,1-1.63,9.73c-.15.48-.47,1.59-1.19,4.1-.8,2.82-1.77,6.32-2.87,10.43-1.17,4.35-2.51,9.19-4,14.4-1.55,5.53-2.94,10.57-4.24,15.4-1.4,5.19-2.78,10.19-4.09,14.88-1.39,4.93-2.55,8.88-3.56,12.07a40.77,40.77,0,0,1-13.69,20.55,58,58,0,0,1-19.08,9.86A96.34,96.34,0,0,1,312.81,175c-6.61.53-13.39.79-20.14.79l-7.33,0q5.45,1.34,10.71,2.92a141.93,141.93,0,0,1,47.22,24.08A114.39,114.39,0,0,1,375.91,244c7.77,16.41,11.72,36.08,11.72,58.48,0,20.42-3,38.9-8.82,54.9a137.16,137.16,0,0,1-59.41,72.36,197.85,197.85,0,0,1-41.88,18.81,260.14,260.14,0,0,1-45.09,9.94A350.89,350.89,0,0,1,187.71,461.44Z" fill="#fff"/><path d="M368.69,54.56q3.18,0,3.18,5.15a11.28,11.28,0,0,1-.73,4.41q-.25.73-1.47,5t-2.95,10.67Q365,86.2,362.8,94t-4.29,15.57q-2.08,7.73-4.05,14.72C353.15,129,352,132.87,351,136a24.94,24.94,0,0,1-8.34,12.75,41.94,41.94,0,0,1-13.85,7.12A80.52,80.52,0,0,1,311.55,159q-9.33.73-18.88.74-7.86,0-16.06-.12T261,159.51a55,55,0,0,0-9.69.74,12.42,12.42,0,0,0-6.74,3.43,16.09,16.09,0,0,0-3.93,7.85,61.42,61.42,0,0,0-1.22,13.73,220.12,220.12,0,0,1,52,8.71,125.3,125.3,0,0,1,41.93,21.33,97.89,97.89,0,0,1,28.08,35.56q10.17,21.45,10.18,51.62,0,27.94-7.85,49.41A121.13,121.13,0,0,1,311.18,416a181.08,181.08,0,0,1-38.5,17.29,242.29,242.29,0,0,1-42.3,9.32,332.82,332.82,0,0,1-42.67,2.82,274.83,274.83,0,0,1-30-1.6,70.22,70.22,0,0,1-25.62-7.47,7.27,7.27,0,0,1-2.57-2c-.91-1-1.35-1.63-1.35-2L148,364.76a7.26,7.26,0,0,1,2.33-2.69,7.36,7.36,0,0,1,4.78-1.48h1.47a165.37,165.37,0,0,0,17.78,1.84q8.21.38,19.49.37a169.8,169.8,0,0,0,24.4-1.72,64.94,64.94,0,0,0,21.22-6.62,38.37,38.37,0,0,0,14.95-14q5.64-9.08,5.64-23.55,0-16.92-6.62-26.6A40.09,40.09,0,0,0,236.27,276a73.07,73.07,0,0,0-23.3-5.76q-12.75-1.1-25.26-1.1-4.91,0-8.7.12t-7,.12c-5.07,0-8.54-.4-10.42-1.22s-2.82-2.78-2.82-5.89a36.72,36.72,0,0,1,.24-3.92c.16-1.47.41-3.19.74-5.15q.74-22.08,3.55-44.26t6.5-44.39q3.69-22.18,7.73-44.26t7.23-44.14q46.59-5.39,91.71-10.42t92.21-11.16m0-32a31.75,31.75,0,0,0-4.14.27c-31.13,4.05-61.95,7.78-91.61,11.08s-60.46,6.81-91.85,10.44a32,32,0,0,0-28,27.21c-2.06,14.28-4.43,28.73-7,43-2.71,14.78-5.34,29.85-7.82,44.8-2.51,15.2-4.76,30.54-6.67,45.59s-3.16,30.19-3.72,45.17c-.26,1.71-.47,3.28-.63,4.76a65.53,65.53,0,0,0-.44,7.43c0,15.8,8.43,29.29,22,35.21h0c6.18,2.7,13.34,3.9,23.23,3.9,2.54,0,5.24-.05,8-.14,2.24-.07,4.82-.1,7.66-.1,7.38,0,14.95.33,22.5,1a41.41,41.41,0,0,1,13.14,3.16,8.06,8.06,0,0,1,3.58,3c.17.37,1.12,2.74,1.12,8.67,0,4.64-.75,6.48-.85,6.71a6.28,6.28,0,0,1-2.65,2.49,33.4,33.4,0,0,1-10.87,3.27,139.47,139.47,0,0,1-19.84,1.39c-7,0-13.09-.11-18.05-.34A135.23,135.23,0,0,1,161.43,329a31.53,31.53,0,0,0-4.86-.38H155.1a39.14,39.14,0,0,0-24.76,8.48,38.52,38.52,0,0,0-12.07,15.84c-.38.93-.7,1.88-1,2.84L97.42,423.43a32,32,0,0,0-1.29,9c0,8.59,3.28,16.53,9.75,23.59a39.7,39.7,0,0,0,12,9.06,102.92,102.92,0,0,0,36.27,10.57,311.51,311.51,0,0,0,33.52,1.78,368.1,368.1,0,0,0,46.76-3.08,275.86,275.86,0,0,0,47.89-10.56,214.39,214.39,0,0,0,45.26-20.33,153.14,153.14,0,0,0,66.21-80.59c6.5-17.77,9.8-38.1,9.8-60.4,0-24.79-4.46-46.77-13.26-65.33a130.22,130.22,0,0,0-37.19-47q-4-3.18-8.33-6.1a72.1,72.1,0,0,0,17.71-10.26,57.22,57.22,0,0,0,19-28.36c1.05-3.33,2.26-7.41,3.68-12.46,1.34-4.79,2.73-9.84,4.13-15,1.3-4.82,2.68-9.81,4.21-15.25,1.47-5.24,2.82-10.14,4-14.56,1.09-4,2-7.46,2.81-10.17l1-3.51a43.72,43.72,0,0,0,2.43-14.75c0-24.13-18.13-37.15-35.18-37.15Z" fill="#231f20"/></svg>