<svg id="abcfdeeb-901a-45a2-9a41-313ad2fcab05" data-name="Layer 1" xmlns="http://www.w3.org/2000/svg" viewBox="0 0 500 500"><path d="M240.24,458.86c-24.61,0-46.55-4.24-65.22-12.62a134.23,134.23,0,0,1-47.3-34.78,143.5,143.5,0,0,1-28-51,199.61,199.61,0,0,1-8.91-60.06,179.17,179.17,0,0,1,6.44-48.21,238.56,238.56,0,0,1,16.87-43.43,317.37,317.37,0,0,1,24.16-40c8.82-12.45,18.1-24.83,27.6-36.8S185,108.24,194.58,96.84c9.35-11.09,18.25-22.32,26.47-33.38l.36-.46c1.14-1.44,2.37-3,3.65-4.77a56.77,56.77,0,0,1,6.35-7.2,45.18,45.18,0,0,1,8-6.08,27.67,27.67,0,0,1,14.25-3.81H314.9a45,45,0,0,1,16.27,2.79c9.16,3.56,14.61,11.14,14.61,20.28,0,6.23-2.51,12.24-7.66,18.36l-.08.09a449.43,449.43,0,0,0-37.8,51.23c-6.1,9.62-12,19.58-17.74,29.8,1.68-.05,3.37-.08,5.07-.08,20.43,0,38.66,4.15,54.19,12.34a117.51,117.51,0,0,1,38.08,31.51A133,133,0,0,1,402,250.14a156.51,156.51,0,0,1,7.18,46.34c0,23.71-3.6,45.7-10.71,65.34a139.45,139.45,0,0,1-32.8,52c-14.42,14.34-32.48,25.58-53.66,33.42C291.23,455,267.07,458.86,240.24,458.86Zm19.52-203.47c-7.71,0-10.5,2.55-11.42,3.38a33.15,33.15,0,0,0-8.57,12.8,76.48,76.48,0,0,0-4.72,20,216.48,216.48,0,0,0-1.25,22,109.4,109.4,0,0,0,1.07,14.1,50.94,50.94,0,0,0,3.62,13.28,25.72,25.72,0,0,0,5.87,8.76c.41.39,1.34,1.29,4.42,1.29a15.75,15.75,0,0,0,7.93-1.74,20.71,20.71,0,0,0,6.48-5.86,36,36,0,0,0,5-10.07,99.71,99.71,0,0,0,3.58-14.5,124.89,124.89,0,0,0,1.62-15.22c.23-5.42.35-10.36.35-14.69,0-5.07-.23-10.42-.68-15.88a34.9,34.9,0,0,0-2.53-11,13.16,13.16,0,0,0-4.14-5.4C265.63,256.05,263.46,255.39,259.76,255.39Z" fill="#fff"/><path d="M314.9,57.14a29.16,29.16,0,0,1,10.49,1.7q4.39,1.71,4.39,5.37c0,2.28-1.3,5-3.9,8.05a462.34,462.34,0,0,0-39.16,53.07A666.79,666.79,0,0,0,253.66,184a115.24,115.24,0,0,1,16.83-3.41,142.21,142.21,0,0,1,17.08-1q26.83,0,46.72,10.49a100.94,100.94,0,0,1,32.94,27.21,116.48,116.48,0,0,1,19.52,37.57,139.93,139.93,0,0,1,6.46,41.6q0,32.94-9.75,59.89a123,123,0,0,1-29,46.11q-19.28,19.17-47.94,29.77t-66.24,10.61q-33.66,0-58.67-11.22A117.68,117.68,0,0,1,139.85,401,126.91,126.91,0,0,1,115,355.64a183.07,183.07,0,0,1-8.17-55.26,162.74,162.74,0,0,1,5.85-43.91A221.12,221.12,0,0,1,128.38,216,299.71,299.71,0,0,1,151.31,178q13-18.42,27.08-36.11t28.43-34.77Q221.21,90.08,233.9,73q1.95-2.44,4-5.25a39,39,0,0,1,4.52-5.12,28.17,28.17,0,0,1,5.12-3.91,11.82,11.82,0,0,1,6.1-1.58H314.9M248.78,367a31.18,31.18,0,0,0,16-3.91,37,37,0,0,0,11.35-10.24,52.08,52.08,0,0,0,7.31-14.52,114.74,114.74,0,0,0,4.15-16.84,137,137,0,0,0,1.83-17.2q.38-8.53.37-15.37,0-8.28-.73-17.2a50.57,50.57,0,0,0-3.79-16,29.22,29.22,0,0,0-9-11.71q-6-4.64-16.47-4.63-13.9,0-22.2,7.56a49.32,49.32,0,0,0-12.69,18.79,91.73,91.73,0,0,0-5.73,24.15,229.22,229.22,0,0,0-1.34,23.67A124.65,124.65,0,0,0,219,329.78a66.8,66.8,0,0,0,4.76,17.44,41.81,41.81,0,0,0,9.52,14q6,5.75,15.49,5.74M314.9,25.14H253.66a44,44,0,0,0-22.37,6,60.88,60.88,0,0,0-10.91,8.27,72.25,72.25,0,0,0-8.2,9.3c-1.13,1.54-2.24,3-3.27,4.26-.24.3-.47.6-.7.91-8,10.81-16.73,21.79-25.86,32.62-9.72,11.53-19.49,23.48-29,35.5-9.67,12.2-19.14,24.82-28.12,37.5a333.47,333.47,0,0,0-25.37,42,254.61,254.61,0,0,0-18,46.35,195.33,195.33,0,0,0-7,52.52,215.64,215.64,0,0,0,9.65,64.87,159.42,159.42,0,0,0,31.16,56.66,150.18,150.18,0,0,0,52.87,38.93c20.74,9.3,44.89,14,71.77,14,28.73,0,54.76-4.24,77.35-12.6,23.35-8.65,43.33-21.12,59.39-37.08a155.36,155.36,0,0,0,36.56-57.91c7.75-21.4,11.67-45.22,11.67-70.79a172.59,172.59,0,0,0-7.89-51.07,149,149,0,0,0-24.87-47.79,133.19,133.19,0,0,0-43.22-35.82,122.54,122.54,0,0,0-39.66-12.64c1.38-2.26,2.78-4.49,4.18-6.71a431.47,431.47,0,0,1,36.46-49.4l.14-.17c7.59-9,11.43-18.65,11.43-28.67C361.78,48.46,352.28,35,337,29a60.78,60.78,0,0,0-22.1-3.89Zm-63,306a35.73,35.73,0,0,1-1.19-5.57,93.63,93.63,0,0,1-.93-12A198.54,198.54,0,0,1,251,293.2a60.4,60.4,0,0,1,3.7-15.81A20.32,20.32,0,0,1,257,273c.06.44.11.89.14,1.36.42,5,.63,9.94.63,14.57,0,4.08-.11,8.79-.34,14A106.19,106.19,0,0,1,256,316.15a83.15,83.15,0,0,1-3,12.19,23.84,23.84,0,0,1-1.1,2.79Z" fill="#231f20"/></svg>