<svg id="a6de6231-73ad-43c2-83c4-ff819bced725" data-name="Layer 1" xmlns="http://www.w3.org/2000/svg" viewBox="0 0 500 500"><path d="M148.59,461.22c-7.66,0-14.29-3-18.66-8.47a25.52,25.52,0,0,1-5.47-16.16A36.68,36.68,0,0,1,128,421.5c1.73-4,4.68-10.92,8.54-20,4.19-9.9,9.08-21.53,14.51-34.57q8.39-20.1,18.25-43.78c6.7-16.06,13.33-32.06,19.71-47.55l41.61-101-26.08.25c-6.65,0-13.6,0-20.65.13s-14.1.12-21,.12H128.12a61.31,61.31,0,0,1-15.22-1.5c-9.6-2.46-15.82-10.29-15.82-19.93a31,31,0,0,1,3-13.12c.29-.65.49-1.09.61-1.37a15.65,15.65,0,0,1,.75-2.08c3.16-7.15,6.38-14.15,9.59-20.82s6.23-12.91,9.28-19.19c2.93-6,6-12.36,9.06-18.85,3-6.31,6-13,9.07-19.83q.3-.68.66-1.32a18.26,18.26,0,0,1,3.47-5.3c5-5.57,10.64-9,16.66-10.33a51,51,0,0,1,10.53-1.21c17.76-.16,33.86-.33,47.87-.5,13.79-.16,26.46-.28,37.68-.37l30.44-.24,26.5-.25c8.67-.08,17.39-.12,25.93-.12h28.25c17.52,0,25.37,12,25.37,23.89A47.47,47.47,0,0,1,389,77.59c-1.44,4.34-3.48,9.57-6,15.58L328.49,231.32c-7,17.71-14.32,36.2-21.7,55Q295.93,314,286.31,338.37c-6.05,15.36-11.87,30.07-17.28,43.7C264,394.81,260,404.8,257.15,411.76l-.06.15c-2.37,5.69-4.1,10-5.13,12.93a61.47,61.47,0,0,1-4.28,9.75,22.75,22.75,0,0,1-10.13,9.62,40.09,40.09,0,0,1-7.91,2.54c-6.28,1.49-13,3-19.83,4.4s-13.81,2.74-20.47,3.91-13.15,2.26-19.19,3.24c-5.85.95-11.27,1.76-16.14,2.42A26.25,26.25,0,0,1,148.59,461.22Z" fill="#fff"/><path d="M366.39,54.78q9.36,0,9.37,7.89a32.66,32.66,0,0,1-2,9.87q-2,5.91-5.68,14.55L313.6,225.46q-10.85,27.38-21.7,55t-20.47,52q-9.63,24.42-17.27,43.66t-11.84,29.6c-2.46,5.92-4.28,10.48-5.42,13.69a48,48,0,0,1-3.09,7.15,7.11,7.11,0,0,1-3,3.08,25.5,25.5,0,0,1-4.81,1.48q-9.37,2.22-19.48,4.32t-20,3.82q-9.87,1.72-19,3.21T151.06,445a8.9,8.9,0,0,1-2.47.24c-2.79,0-4.85-.82-6.16-2.46a9.55,9.55,0,0,1-2-6.17,21.52,21.52,0,0,1,2.22-8.63q2.46-5.68,8.63-20.23t14.55-34.65l18.25-43.78q9.87-23.68,19.73-47.61l50.81-123.32-50.07.49q-10.11,0-20.84.13t-20.84.12H128.12a47.81,47.81,0,0,1-11.22-1q-3.83-1-3.82-4.44a15.16,15.16,0,0,1,1.48-6.41,18.77,18.77,0,0,0,1.48-3.7q4.68-10.6,9.37-20.35t9.25-19.11q4.56-9.37,9.13-19T153,64.89a2.14,2.14,0,0,0,.62-1.11,2.14,2.14,0,0,1,.62-1.11q4.18-4.68,8.26-5.55a35.83,35.83,0,0,1,7.28-.86q27.12-.25,48-.5t37.61-.37l30.47-.24,26.51-.25q12.83-.12,25.77-.12h28.25m0-32H338.14c-8.62,0-17.39,0-26.07.12l-26.5.25-30.41.24c-11.31.09-24,.22-37.75.38s-30,.33-47.79.49a66.69,66.69,0,0,0-13.71,1.55h0c-9.34,2-17.78,7.08-25.1,15.13a34.53,34.53,0,0,0-6.1,9.14c-.32.61-.62,1.23-.9,1.87-3,6.72-6,13.26-8.89,19.45-3,6.41-6.07,12.7-9,18.69-3.1,6.37-6.24,12.85-9.32,19.26-3.28,6.81-6.58,14-9.8,21.28a31,31,0,0,0-1.12,2.9l-.14.31a47,47,0,0,0-4.43,19.83c0,16.92,11.2,31.16,27.86,35.44a76.51,76.51,0,0,0,19.18,2H162.9c7.06,0,14.2,0,21.22-.13s13.94-.12,20.46-.12h.32l1.77,0L174.26,269.5C167.88,285,161.25,301,154.57,317q-9.85,23.67-18.24,43.77c-5.41,13-10.29,24.57-14.49,34.49-3.84,9.07-6.76,15.92-8.45,19.81a52.87,52.87,0,0,0-4.93,21.53,41.4,41.4,0,0,0,9,26.17c7.46,9.32,18.52,14.46,31.14,14.46a43.19,43.19,0,0,0,8-.7c4.89-.67,10.3-1.48,16.11-2.42,6-1,12.56-2.08,19.37-3.28s13.9-2.54,21-4,13.83-3,20.3-4.5a56,56,0,0,0,10.9-3.57,38.72,38.72,0,0,0,17.25-16.09l.05-.09a75.87,75.87,0,0,0,5.47-12.3c.66-1.85,2-5.44,4.85-12.2a2.88,2.88,0,0,1,.13-.31c2.79-6.9,6.8-16.92,11.91-29.78,5.42-13.66,11.24-28.37,17.3-43.75q9.63-24.42,20.48-52.07c7.39-18.8,14.68-37.27,21.67-54.91l0-.06L397.72,99.25c2.73-6.41,4.83-11.83,6.42-16.57a63.2,63.2,0,0,0,3.62-20c0-12.15-4.88-22.94-13.73-30.4-5.15-4.33-14.12-9.49-27.64-9.49Z" fill="#231f20"/></svg>