<svg id="a91cb6c3-0172-4376-a56f-b28c2f6d9695" data-name="Layer 1" xmlns="http://www.w3.org/2000/svg" viewBox="0 0 500 500"><path d="M236.15,458.88A198.41,198.41,0,0,1,202.89,456a170.11,170.11,0,0,1-32.63-9,148.33,148.33,0,0,1-29.94-15.66A113.26,113.26,0,0,1,115,407.86a108.07,108.07,0,0,1-17-31.31,118,118,0,0,1-6.14-39,121.78,121.78,0,0,1,5.38-37.21,129.16,129.16,0,0,1,14.4-30.49,176.14,176.14,0,0,1,20.45-25.82q4.89-5.12,10.05-10.3a88.94,88.94,0,0,1-17.75-24.59c-6.68-13.86-10.07-29.5-10.07-46.5a110.92,110.92,0,0,1,6.63-39,105.25,105.25,0,0,1,18.39-31.45,116.87,116.87,0,0,1,27.3-23.42,166.8,166.8,0,0,1,32.56-15.6,202.84,202.84,0,0,1,36.17-9.09,245.08,245.08,0,0,1,37.92-2.94A133.72,133.72,0,0,1,315.13,48a124.15,124.15,0,0,1,38.36,20.48A110.33,110.33,0,0,1,381.78,102c7.53,13.66,11.35,29.27,11.35,46.41a99.71,99.71,0,0,1-3.74,27.5,127.31,127.31,0,0,1-9.29,23.41,124,124,0,0,1-13.18,20.34c-.84,1-1.68,2.08-2.53,3.1q4,3.54,7.88,7.33a115.49,115.49,0,0,1,18.83,24.45,126.11,126.11,0,0,1,12.47,30.72,148.79,148.79,0,0,1,4.53,38.06,112.61,112.61,0,0,1-7.91,42.57,122.72,122.72,0,0,1-21,34.29,142.37,142.37,0,0,1-30.35,26.16,194.61,194.61,0,0,1-35.63,18.08,218.58,218.58,0,0,1-77.1,14.42Zm16-179.16a6.08,6.08,0,0,0-3.33.71,14,14,0,0,0-4,4.35,35.65,35.65,0,0,0-3.85,8.89A109.42,109.42,0,0,0,238,306.53a113.05,113.05,0,0,0-1.42,12.8c-.24,4.45-.36,8.4-.36,11.76a172.45,172.45,0,0,0,1.15,18.7,67.15,67.15,0,0,0,4.11,17,28.6,28.6,0,0,0,7,10.69c.64.62,2.36,2.24,7.46,2.24.88,0,1.06-.15,1.27-.33a20.76,20.76,0,0,0,4.61-6,54.57,54.57,0,0,0,4.4-11.28,126.74,126.74,0,0,0,3.11-14.29c.76-4.86,1.29-9.45,1.59-13.65s.46-7.64.46-10.08a86.57,86.57,0,0,0-1.71-16,69.62,69.62,0,0,0-5.06-16,32.15,32.15,0,0,0-7.31-10.41A6.78,6.78,0,0,0,252.12,279.72Zm1.75-155.45c-3,0-4,.83-4.38,1.18a18.06,18.06,0,0,0-4.9,6.57,45.62,45.62,0,0,0-3.5,11.75,83.73,83.73,0,0,0-1.16,13.16,57.89,57.89,0,0,0,1.49,12.27,42,42,0,0,0,4.33,11.48A23.29,23.29,0,0,0,252,188c.89.68,2.46,1.58,5.88,1.58,1.62,0,1.88-.31,2.07-.53a22.93,22.93,0,0,0,4.52-8.76A68.13,68.13,0,0,0,267,165.83c.39-5.76.59-10.51.59-14.14a59.59,59.59,0,0,0-1.2-11.51,34.75,34.75,0,0,0-3.3-9.57,15.21,15.21,0,0,0-4.48-5.23A8.07,8.07,0,0,0,253.87,124.27Z" fill="#fff"/><path d="M273.33,57.12a117.16,117.16,0,0,1,36.8,6.12,107.59,107.59,0,0,1,33.44,17.84,94,94,0,0,1,24.2,28.69q9.36,17,9.36,38.68A83.2,83.2,0,0,1,374,171.53,110.54,110.54,0,0,1,365.9,192a107.6,107.6,0,0,1-11.48,17.71q-6.48,8.12-13.22,15.1A163.86,163.86,0,0,1,361,241.52a99.36,99.36,0,0,1,16.21,21.08,109.38,109.38,0,0,1,10.86,26.82,132.06,132.06,0,0,1,4,33.94,96.29,96.29,0,0,1-6.74,36.55,106,106,0,0,1-18.21,29.82,125.32,125.32,0,0,1-26.95,23.2,177.16,177.16,0,0,1-32.69,16.6,202.92,202.92,0,0,1-71.36,13.35,181.92,181.92,0,0,1-30.56-2.62A154,154,0,0,1,176,432.15a131.51,131.51,0,0,1-26.7-14A96.41,96.41,0,0,1,127.61,398a91.71,91.71,0,0,1-14.47-26.69,101.68,101.68,0,0,1-5.24-33.69,105.13,105.13,0,0,1,4.62-32.31,111.56,111.56,0,0,1,12.6-26.7,158.52,158.52,0,0,1,18.59-23.45Q154.32,244,166,232.78q-18.72-13-27.2-30.56t-8.48-39.55A94.71,94.71,0,0,1,136,129.23a88.77,88.77,0,0,1,15.6-26.69,100.78,100.78,0,0,1,23.57-20.22,150.31,150.31,0,0,1,29.45-14.09,185.16,185.16,0,0,1,33.31-8.36,227.78,227.78,0,0,1,35.43-2.75M257.86,205.59q9,0,14.22-6.12a38.88,38.88,0,0,0,7.74-14.72,84.74,84.74,0,0,0,3.12-17.84q.62-9.22.62-15.22a75.56,75.56,0,0,0-1.5-14.6,50.76,50.76,0,0,0-4.86-14,31.06,31.06,0,0,0-9.11-10.6q-5.74-4.24-14.22-4.25a22.13,22.13,0,0,0-14.6,4.87A33.89,33.89,0,0,0,230,125.37a61,61,0,0,0-4.74,15.84,98.36,98.36,0,0,0-1.37,15.72,73.21,73.21,0,0,0,1.87,15.72,57.17,57.17,0,0,0,6,15.84,39.23,39.23,0,0,0,10.47,12.23,25,25,0,0,0,15.6,4.87m-2,190.13a17.37,17.37,0,0,0,11.61-4.12,36.15,36.15,0,0,0,8.36-10.6,70.39,70.39,0,0,0,5.73-14.6,142.31,142.31,0,0,0,3.5-16.09q1.24-8,1.74-15c.34-4.65.5-8.4.5-11.22a102.31,102.31,0,0,0-2-19,85.23,85.23,0,0,0-6.24-19.71,48.32,48.32,0,0,0-11-15.47,22.7,22.7,0,0,0-16-6.24,21.37,21.37,0,0,0-12.35,3.5,30.15,30.15,0,0,0-8.61,9.1,51.73,51.73,0,0,0-5.61,12.85,124.72,124.72,0,0,0-3.37,14.73,130.94,130.94,0,0,0-1.62,14.59q-.37,7.11-.38,12.6a186.93,186.93,0,0,0,1.25,20.46,82.21,82.21,0,0,0,5.12,21.09,44.72,44.72,0,0,0,10.85,16.47q7,6.6,18.46,6.61m17.47-370.6a260.92,260.92,0,0,0-40.4,3.14,218.59,218.59,0,0,0-39,9.8,183.21,183.21,0,0,0-35.69,17.11,132.9,132.9,0,0,0-31,26.63A121.42,121.42,0,0,0,106,118a126.8,126.8,0,0,0-7.65,44.67c0,19.42,3.92,37.4,11.66,53.45a101.35,101.35,0,0,0,10.41,17,191.72,191.72,0,0,0-22.19,28,145.13,145.13,0,0,0-16.19,34.27,137.65,137.65,0,0,0-6.15,42.11,133.79,133.79,0,0,0,7,44.26,123.91,123.91,0,0,0,19.53,35.92,128.78,128.78,0,0,0,28.86,26.88A163.87,163.87,0,0,0,164.5,462a186.52,186.52,0,0,0,35.7,9.8,214.42,214.42,0,0,0,36,3.08,230.57,230.57,0,0,0,41.59-3.9A233,233,0,0,0,319,459.4a210.49,210.49,0,0,0,38.56-19.58,158,158,0,0,0,33.77-29.12A138.17,138.17,0,0,0,415,372a128.53,128.53,0,0,0,9.09-48.59A164.6,164.6,0,0,0,419,281.18,142.45,142.45,0,0,0,405,246.57,132.36,132.36,0,0,0,385.78,221a141.33,141.33,0,0,0,19-40.68,115.68,115.68,0,0,0,4.36-31.91c0-19.87-4.49-38.09-13.34-54.13A125.94,125.94,0,0,0,363.4,56a139.94,139.94,0,0,0-43.27-23.13,149.75,149.75,0,0,0-46.8-7.72ZM253.14,347.17a155.09,155.09,0,0,1-1-16.08c0-3.08.11-6.75.33-10.92a101.07,101.07,0,0,1,1.11-10.27c.09.4.17.82.25,1.23a71.12,71.12,0,0,1,1.43,13c0,1.41-.07,4.11-.41,8.94-.27,3.75-.76,7.9-1.45,12.32q-.13.9-.3,1.8Z" fill="#231f20"/></svg>