<svg id="f4135677-1b31-462a-9820-3b97f5bb3541" data-name="Layer 1" xmlns="http://www.w3.org/2000/svg" viewBox="0 0 500 500"><path d="M269.77,457A22.49,22.49,0,0,1,258.7,454c-4-2.17-7.72-4.13-11-5.83-3-1.6-6.07-3.07-9-4.38s-5.9-2.55-8.95-3.71C227,439,223.75,438,220.29,437c-17-4.48-18.28-17.17-18.28-21a25.14,25.14,0,0,1,5.51-15.24,206.29,206.29,0,0,0,12.53-20c4-7.35,7.81-15,11.19-22.84,2.83-6.53,5.48-13.09,7.9-19.53a170.59,170.59,0,0,1-26.4,2.11,114,114,0,0,1-50.23-11.31,129.8,129.8,0,0,1-39.59-29.5,137.49,137.49,0,0,1-26.18-42.27,135.13,135.13,0,0,1-9.5-49.85,148.83,148.83,0,0,1,7.68-48.18,150.38,150.38,0,0,1,21.2-40.75A169.41,169.41,0,0,1,147.6,86.24a193.49,193.49,0,0,1,38.54-23.65A215.58,215.58,0,0,1,228.85,48.1a203.38,203.38,0,0,1,45-5.07c21.36,0,41,4.91,58.45,14.59a146,146,0,0,1,43.44,36.72,172.83,172.83,0,0,1,37,105.58,207.67,207.67,0,0,1-6,49.85A282.62,282.62,0,0,1,391,295.87a359.08,359.08,0,0,1-22.58,43c-8.32,13.55-17.27,26.88-26.59,39.64-9.21,12.6-18.68,24.94-28.14,36.67-9.29,11.52-18.34,22.81-26.88,33.57a17.29,17.29,0,0,1-1.21,1.36,27.33,27.33,0,0,1-4.24,3.43A20.83,20.83,0,0,1,269.77,457ZM254,137.81c-5.46,0-9.63,1.12-12.74,3.43a32.24,32.24,0,0,0-9.5,11.23,58.08,58.08,0,0,0-5.71,17.4,123.18,123.18,0,0,0-1.81,20.23,84.78,84.78,0,0,0,2.4,20.24,46.64,46.64,0,0,0,6.63,15.25,29.84,29.84,0,0,0,10.46,9.31c4.13,2.26,9.52,3.41,16,3.41a26.86,26.86,0,0,0,5.69-.47h.07c.79-3.39,1.5-6.47,2.1-9.22,1-4.62,1.77-9,2.27-12.94s.87-8.25,1.09-12.4.34-9.23.34-14.85c0-3.24-.11-7.12-.34-11.53a119.26,119.26,0,0,0-1.37-12.76,99.55,99.55,0,0,0-2.89-12.57,30.65,30.65,0,0,0-3.81-8.35,15.48,15.48,0,0,0-4.5-4.48A8.36,8.36,0,0,0,254,137.81Z" fill="#fff"/><path d="M273.84,59q28,0,50.68,12.58a129.43,129.43,0,0,1,38.7,32.7,156.79,156.79,0,0,1,33.54,95.61,190.65,190.65,0,0,1-5.51,46,265.93,265.93,0,0,1-14.85,43.49,341.53,341.53,0,0,1-21.57,41.09Q342.61,350.4,329,369.09t-27.67,36.06q-14,17.37-27,33.67a12.43,12.43,0,0,1-1.8,1.43,4.85,4.85,0,0,1-2.75.72,6.72,6.72,0,0,1-3.36-1q-6.23-3.35-11.26-6t-9.82-4.79q-4.8-2.16-9.83-4.07t-11-3.6Q218,419.9,218,416.05a9.73,9.73,0,0,1,2.4-5.75,223.46,223.46,0,0,0,13.66-21.8q6.47-11.75,11.86-24.2t9.82-24.68q4.44-12.22,7.55-23a211.13,211.13,0,0,1-25.16,5.75,154.11,154.11,0,0,1-25.4,2.16,97.8,97.8,0,0,1-43.25-9.7,113.56,113.56,0,0,1-34.74-25.88,121.09,121.09,0,0,1-23.13-37.38,118.56,118.56,0,0,1-8.38-44,132.07,132.07,0,0,1,6.83-43A133.54,133.54,0,0,1,129,128.16,152.29,152.29,0,0,1,157.51,98.8a176.55,176.55,0,0,1,35.34-21.68A199.16,199.16,0,0,1,232.39,63.7,187.16,187.16,0,0,1,273.84,59M259.7,254.31a43.09,43.09,0,0,0,9.11-.84,90.35,90.35,0,0,0,10.06-3q2.64-10.78,4.32-18.45t2.51-14.38q.84-6.71,1.2-13.54t.36-15.69q0-5.28-.36-12.34a133.55,133.55,0,0,0-1.56-14.5A113.67,113.67,0,0,0,282,147a46.52,46.52,0,0,0-5.87-12.7,31.44,31.44,0,0,0-9.11-9A23.54,23.54,0,0,0,254,121.81q-13.41,0-22.28,6.59a48.48,48.48,0,0,0-14.14,16.65,74.07,74.07,0,0,0-7.31,22.16,139,139,0,0,0-2,22.89,100.29,100.29,0,0,0,2.87,24.08,61.83,61.83,0,0,0,9,20.48A45.58,45.58,0,0,0,236,248.92q9.83,5.4,23.72,5.39M273.84,27a220.17,220.17,0,0,0-48.53,5.46,232.27,232.27,0,0,0-45.88,15.58,209.53,209.53,0,0,0-41.73,25.6,185.22,185.22,0,0,0-34.46,35.5,163.9,163.9,0,0,0-32,98.42,150.82,150.82,0,0,0,10.63,55.74,153.42,153.42,0,0,0,29.22,47.16,146,146,0,0,0,44.43,33.12,130,130,0,0,0,57.22,12.91h1.62c-2.58,5.64-5.37,11.19-8.32,16.54a189.59,189.59,0,0,1-11.44,18.33A41,41,0,0,0,186,416.05a36.33,36.33,0,0,0,12.87,27.66,43.54,43.54,0,0,0,17.18,8.73c3,.83,5.67,1.71,8.05,2.62,2.76,1.05,5.48,2.18,8.09,3.35s5.33,2.51,8.1,4c3.17,1.66,6.77,3.58,10.72,5.7a38.81,38.81,0,0,0,18.75,4.9,36.88,36.88,0,0,0,20.51-6.09,43.77,43.77,0,0,0,6.67-5.44,33,33,0,0,0,2.43-2.72c8.54-10.75,17.55-22,26.8-33.48,9.62-11.92,19.25-24.46,28.61-37.27,9.56-13.09,18.75-26.79,27.31-40.71a374.92,374.92,0,0,0,23.58-44.94,299.67,299.67,0,0,0,16.64-48.71,224.24,224.24,0,0,0,6.44-53.69A188.79,188.79,0,0,0,388.23,84.36a161.78,161.78,0,0,0-48.17-40.73C320.23,32.62,298,27,273.84,27ZM250.63,154.18h0c.25.61.48,1.27.7,2a81.8,81.8,0,0,1,2.41,10.52,102.24,102.24,0,0,1,1.19,11c.21,4.16.32,7.76.32,10.72,0,5.32-.11,10-.32,14-.19,3.77-.53,7.56-1,11.25-.3,2.42-.72,5-1.25,7.75a8.79,8.79,0,0,1-1.32-.56,13.92,13.92,0,0,1-5-4.36,30,30,0,0,1-4.27-10,68.12,68.12,0,0,1-1.94-16.39,106.56,106.56,0,0,1,1.59-17.58,41.5,41.5,0,0,1,4.1-12.62,16.42,16.42,0,0,1,4.75-5.72Z" fill="#231f20"/></svg>